<svg width="1920" height="768" viewBox="0 0 1920 768" fill="none" xmlns="http://www.w3.org/2000/svg">
<rect width="1920" height="768" fill="#0C3B4B"/>
<rect x="1410" y="124" width="510" height="240" fill="#FED166"/>
<circle cx="1420" cy="244" r="120" fill="#FED166"/>
<rect x="1420" y="144" width="200" height="200" fill="#2EAE7E"/>
<circle cx="1420" cy="244" r="100" fill="#2EAE7E"/>
<circle cx="1620" cy="244" r="100" fill="#2EAE7E"/>
<circle cx="1820" cy="244" r="100" fill="#6BBD4F"/>
<g clip-path="url(#clip0_18_22)">
<rect x="1320" y="144" width="200" height="200" rx="100" fill="#148CAD"/>
<path d="M1420.01 164C1375.89 164 1340 199.875 1340 243.985C1340 288.095 1375.89 324 1420.01 324C1428.79 323.992 1437.51 322.521 1445.85 319.641C1446.58 319.42 1447.22 318.96 1447.68 318.328C1448.14 317.696 1448.39 316.925 1448.41 316.129C1448.4 315.127 1448.02 314.17 1447.35 313.462C1446.68 312.754 1445.77 312.352 1444.82 312.344C1444.34 312.339 1443.86 312.431 1443.41 312.617C1435.87 315.207 1427.98 316.525 1420.04 316.522C1380.02 316.522 1347.46 283.977 1347.46 243.864C1347.46 203.75 1380.02 171.205 1420.04 171.205C1460.06 171.205 1492.59 203.75 1492.59 243.864C1492.53 254.491 1490.2 264.968 1485.79 274.521C1481.37 284.073 1474.97 292.457 1467.07 299.054C1466.66 299.392 1466.32 299.823 1466.09 300.316C1465.86 300.808 1465.73 301.349 1465.72 301.9C1465.74 302.401 1465.84 302.894 1466.04 303.351C1466.23 303.807 1466.51 304.219 1466.86 304.562C1467.21 304.905 1467.61 305.173 1468.06 305.35C1468.5 305.527 1468.98 305.609 1469.45 305.593C1470.26 305.598 1471.04 305.333 1471.69 304.836C1480.46 297.567 1487.55 288.306 1492.45 277.745C1497.36 267.183 1499.93 255.592 1500 243.833C1500 199.875 1464.11 164 1420.01 164Z" fill="#0C3B4B"/>
<path d="M1444.96 289.335C1448.67 289.417 1452.27 287.948 1454.96 285.248C1457.64 282.549 1459.21 278.838 1459.32 274.925V252.31C1462.32 251.7 1465.04 250.019 1467.01 247.55C1468.98 245.081 1470.09 241.973 1470.14 238.747C1470.13 236.778 1469.71 234.836 1468.92 233.054C1468.13 231.272 1466.98 229.692 1465.55 228.423L1430.81 192.912L1430.12 192.215L1429.78 191.882C1427.2 189.64 1423.97 188.414 1420.63 188.414C1417.29 188.414 1414.06 189.64 1411.49 191.882L1411.32 192.034L1410.4 192.942L1374.71 228.151C1374.17 228.617 1373.66 229.122 1373.19 229.665C1371.06 232.157 1369.9 235.396 1369.92 238.747C1369.96 241.794 1370.95 244.742 1372.74 247.141C1374.52 249.54 1377 251.259 1379.79 252.037L1380.05 252.643H1380.45V274.925C1380.55 278.841 1382.12 282.556 1384.81 285.257C1387.5 287.958 1391.09 289.425 1394.81 289.335H1410.68V253.702C1410.69 253.412 1410.75 253.126 1410.86 252.861C1410.98 252.596 1411.14 252.357 1411.34 252.157C1411.54 251.958 1411.77 251.801 1412.03 251.698C1412.29 251.594 1412.56 251.545 1412.84 251.553H1427.28C1427.55 251.545 1427.83 251.594 1428.08 251.698C1428.34 251.801 1428.58 251.958 1428.78 252.157C1428.98 252.357 1429.14 252.596 1429.25 252.861C1429.36 253.126 1429.42 253.412 1429.43 253.702V289.335H1444.96ZM1427.28 244.105H1412.75C1410.27 244.04 1407.87 245.014 1406.07 246.813C1404.28 248.612 1403.23 251.09 1403.16 253.702V281.888H1394.72C1392.93 281.929 1391.19 281.22 1389.89 279.915C1388.59 278.611 1387.83 276.817 1387.77 274.925V245.195H1383.38H1382.89C1381.36 245.068 1379.92 244.345 1378.86 243.165C1377.8 241.985 1377.19 240.433 1377.15 238.807C1377.15 237.323 1377.65 235.887 1378.56 234.751C1378.8 234.464 1379.07 234.201 1379.36 233.964L1414.42 199.239H1414.65L1415.74 197.998C1416.36 197.3 1417.11 196.744 1417.94 196.364C1418.77 195.984 1419.67 195.788 1420.57 195.788C1421.48 195.788 1422.38 195.984 1423.21 196.364C1424.04 196.744 1424.79 197.3 1425.41 197.998L1426.53 199.239L1460.38 233.631L1460.58 233.842C1461.26 234.427 1461.8 235.162 1462.18 235.994C1462.56 236.825 1462.76 237.734 1462.76 238.656C1462.74 239.527 1462.56 240.384 1462.22 241.18C1461.88 241.975 1461.4 242.693 1460.8 243.292C1460.2 243.891 1459.49 244.359 1458.72 244.67C1457.95 244.981 1457.13 245.129 1456.3 245.105H1451.97V274.834C1451.95 275.772 1451.75 276.697 1451.39 277.555C1451.03 278.413 1450.51 279.187 1449.86 279.834C1449.22 280.48 1448.46 280.986 1447.63 281.323C1446.8 281.66 1445.91 281.821 1445.02 281.797H1436.87V253.702C1436.8 251.09 1435.75 248.612 1433.95 246.813C1432.16 245.014 1429.76 244.04 1427.28 244.105Z" fill="#0C3B4B"/>
<path d="M1461.44 304.11C1460.75 304.146 1460.09 304.394 1459.53 304.824C1458.97 305.254 1458.55 305.847 1458.3 306.53C1458.06 307.213 1458.02 307.955 1458.17 308.665C1458.33 309.375 1458.68 310.022 1459.18 310.524C1459.68 311.027 1460.31 311.364 1460.99 311.494C1461.67 311.623 1462.37 311.54 1463 311.253C1463.64 310.967 1464.18 310.49 1464.56 309.883C1464.94 309.275 1465.14 308.562 1465.15 307.834C1465.13 307.333 1465.03 306.839 1464.84 306.381C1464.64 305.923 1464.37 305.509 1464.03 305.163C1463.68 304.817 1463.28 304.546 1462.83 304.365C1462.39 304.185 1461.92 304.098 1461.44 304.11Z" fill="#0C3B4B"/>
</g>
<rect x="1210" y="404" width="710" height="240" fill="#185C69"/>
<circle cx="1220" cy="524" r="120" fill="#185C69"/>
<rect x="1220" y="424" width="200" height="200" fill="#F04770"/>
<circle cx="1220" cy="524" r="100" fill="#F04770"/>
<circle cx="1420" cy="524" r="100" fill="#F04770"/>
<rect x="1620" y="424" width="200" height="200" fill="#92298E"/>
<circle cx="1620" cy="524" r="100" fill="#92298E"/>
<circle cx="1820" cy="524" r="100" fill="#92298E"/>
<g clip-path="url(#clip1_18_22)">
<rect x="1120" y="424" width="200" height="200" rx="100" fill="#F0683E"/>
<path d="M1220 444C1175.89 444 1140 479.886 1140 524C1140 568.114 1175.89 603.997 1220 603.997C1229.08 603.997 1237.81 602.456 1245.95 599.654C1245.95 599.654 1245.95 599.646 1245.94 599.641C1247.44 599.157 1248.52 597.776 1248.52 596.122C1248.52 594.067 1246.86 592.405 1244.81 592.405C1244.3 592.405 1243.83 592.507 1243.39 592.687C1243.39 592.677 1243.39 592.669 1243.38 592.661C1236.04 595.169 1228.18 596.548 1219.99 596.548C1179.99 596.548 1147.44 564.005 1147.44 524C1147.44 483.995 1179.99 451.449 1220 451.449C1260 451.449 1292.55 483.997 1292.55 524C1292.55 546.074 1282.63 565.86 1267.02 579.178C1266.21 579.863 1265.68 580.871 1265.68 582.017C1265.68 584.068 1267.35 585.734 1269.4 585.734C1270.24 585.734 1271.01 585.442 1271.64 584.966L1271.66 584.99L1271.68 584.998C1288.99 570.313 1300 548.425 1300 524.003C1300 479.886 1264.11 444 1220 444Z" fill="#0C3B4B"/>
<path d="M1261.43 584.115C1259.37 584.115 1257.71 585.779 1257.71 587.834C1257.71 589.89 1259.37 591.551 1261.43 591.551C1263.48 591.551 1265.14 589.887 1265.14 587.834C1265.14 585.781 1263.48 584.115 1261.43 584.115Z" fill="#0C3B4B"/>
<path d="M1200.4 567.719C1199.86 567.719 1199.39 567.518 1198.99 567.116C1198.59 566.714 1198.39 566.244 1198.39 565.708C1198.39 565.371 1198.49 564.969 1198.69 564.502L1233.06 482.083C1233.26 481.681 1233.55 481.278 1233.92 480.876C1234.28 480.474 1234.87 480.273 1235.67 480.273H1239.6C1240.13 480.273 1240.6 480.474 1241 480.876C1241.41 481.278 1241.61 481.748 1241.61 482.284C1241.61 482.553 1241.54 482.955 1241.41 483.491L1206.93 565.909C1206.79 566.244 1206.53 566.63 1206.13 567.066C1205.72 567.5 1205.12 567.719 1204.31 567.719H1200.39H1200.4Z" fill="#0C3B4B"/>
<path d="M1202.75 497.272C1202.34 496.903 1201.88 496.715 1201.33 496.715C1200.93 496.715 1200.52 496.851 1200.08 497.12C1199.65 497.389 1199.26 497.622 1198.92 497.82L1167.26 519.534C1166.26 520.27 1165.52 520.97 1165.05 521.644C1164.59 522.318 1164.35 523.117 1164.35 524.058V525.862C1164.35 526.732 1164.59 527.542 1165.05 528.276C1165.52 529.01 1166.26 529.72 1167.26 530.386L1197.15 550.979C1198.05 551.598 1199.29 551.233 1199.71 550.227L1201.69 545.46C1201.99 544.737 1201.77 543.89 1201.14 543.428C1201.1 543.405 1201.07 543.381 1201.04 543.357L1174.1 524.956L1201.04 506.562C1201.78 506.095 1202.34 505.612 1202.75 505.108C1203.15 504.606 1203.35 503.984 1203.35 503.25V498.826C1203.35 498.162 1203.15 497.64 1202.75 497.272Z" fill="#0C3B4B"/>
<path d="M1237.25 550.726C1237.66 551.094 1238.12 551.282 1238.66 551.282C1239.07 551.282 1239.48 551.146 1239.92 550.877C1240.35 550.608 1240.74 550.376 1241.08 550.177L1272.74 528.464C1273.74 527.727 1274.48 527.027 1274.94 526.353C1275.41 525.68 1275.64 524.88 1275.64 523.94V522.135C1275.64 521.265 1275.41 520.456 1274.94 519.722C1274.48 518.985 1273.74 518.277 1272.74 517.611L1242.85 497.018C1241.95 496.399 1240.71 496.765 1240.29 497.77L1238.31 502.537C1238.01 503.261 1238.23 504.107 1238.86 504.569C1238.89 504.593 1238.93 504.616 1238.96 504.64L1265.9 523.041L1238.96 541.435C1238.22 541.903 1237.66 542.386 1237.25 542.89C1236.85 543.394 1236.65 544.013 1236.65 544.747V549.172C1236.65 549.835 1236.85 550.358 1237.25 550.726Z" fill="#0C3B4B"/>
</g>
<defs>
<clipPath id="clip0_18_22">
<rect width="200" height="200" fill="white" transform="translate(1320 144)"/>
</clipPath>
<clipPath id="clip1_18_22">
<rect width="200" height="200" fill="white" transform="translate(1120 424)"/>
</clipPath>
</defs>
</svg>
